<?xml version="1.0" encoding="utf-8"?>
<!-- Generator: Adobe Illustrator 26.0.1, SVG Export Plug-In . SVG Version: 6.00 Build 0)  -->
<svg version="1.1" id="Layer_1" xmlns="http://www.w3.org/2000/svg" xmlns:xlink="http://www.w3.org/1999/xlink" x="0px" y="0px"
	 viewBox="0 0 1000 1000" style="enable-background:new 0 0 1000 1000;" xml:space="preserve">
<style type="text/css">
	.st0{stroke:#000000;stroke-miterlimit:10;}
</style>
<path class="st0" d="M328.55,271.4l114.3,114.3l-57.15,57.15l-114.3-114.3L99.95,500L271.4,671.45l114.3-114.3l57.15,57.15
	l-114.3,114.3L500,900.05L671.45,728.6l-114.3-114.3l57.15-57.15l114.3,114.3L900.05,500L728.6,328.55l-114.3,114.3l-57.15-57.15
	l114.3-114.3L500,99.95L328.55,271.4z M557.15,728.6L500,785.75l-57.15-57.15L500,671.45L557.15,728.6z M328.55,500l-57.15,57.15
	L214.25,500l57.15-57.15L328.55,500z M557.15,500L500,557.15L442.85,500L500,442.85L557.15,500z M728.6,442.85L785.75,500
	l-57.15,57.15L671.45,500L728.6,442.85z M557.15,271.4L500,328.55l-57.15-57.15L500,214.25L557.15,271.4z"/>
</svg>
